<svg width="900" height="700" xmlns="http://www.w3.org/2000/svg">
  <g transform="translate(0,60)">
    <!-- the main chip shape -->
    <rect width="800" height="450" x="50" y="50" fill="lightgray" stroke="black" stroke-width="3" />
    <rect width="770" height="425" x="65" y="64" fill="white" stroke="black" stroke-width="3" />

    <!-- the notch and label -->
    <path d="M 62 225 C 140 225, 140 325, 62 325" fill="lightgray" stroke="black" stroke-width="3" />
    <text x="445" y="310" text-anchor="middle" font-family="sans-serif" font-size="6em" fill="gray">7408</text>

    <!-- top row of pins -->
    <rect width="80" height="75" x="110" y="-10"  fill="white" stroke="black" stroke-width="5" />
    <text x="150" y="45" text-anchor="middle" font-family="sans-serif" font-size="3em" fill="black">14</text>
    <text x="150" y="-25" text-anchor="middle" font-family="sans-serif" font-size="3em" fill="black">Vcc</text>
    <rect width="80" height="75" x="210" y="-10"  fill="white" stroke="black" stroke-width="5" />
    <text x="250" y="45" text-anchor="middle" font-family="sans-serif" font-size="3em" fill="black">13</text>
    <text x="250" y="-25" text-anchor="middle" font-family="sans-serif" font-size="3em" fill="black">4B</text>
    <rect width="80" height="75" x="310" y="-10"  fill="white" stroke="black" stroke-width="5" />
    <text x="350" y="45" text-anchor="middle" font-family="sans-serif" font-size="3em" fill="black">12</text>
    <text x="350" y="-25" text-anchor="middle" font-family="sans-serif" font-size="3em" fill="black">4A</text>
    <rect width="80" height="75" x="410" y="-10"  fill="white" stroke="black" stroke-width="5" />
    <text x="450" y="45" text-anchor="middle" font-family="sans-serif" font-size="3em" fill="black">11</text>
    <text x="450" y="-25" text-anchor="middle" font-family="sans-serif" font-size="3em" fill="black">4Y</text>
    <rect width="80" height="75" x="510" y="-10"  fill="white" stroke="black" stroke-width="5" />
    <text x="550" y="45" text-anchor="middle" font-family="sans-serif" font-size="3em" fill="black">10</text>
    <text x="550" y="-25" text-anchor="middle" font-family="sans-serif" font-size="3em" fill="black">3B</text>
    <rect width="80" height="75" x="610" y="-10"  fill="white" stroke="black" stroke-width="5" />
    <text x="650" y="45" text-anchor="middle" font-family="sans-serif" font-size="3em" fill="black">9</text>
    <text x="650" y="-25" text-anchor="middle" font-family="sans-serif" font-size="3em" fill="black">3A</text>
    <rect width="80" height="75" x="710" y="-10"  fill="white" stroke="black" stroke-width="5" />
    <text x="750" y="45" text-anchor="middle" font-family="sans-serif" font-size="3em" fill="black">8</text>
    <text x="750" y="-25" text-anchor="middle" font-family="sans-serif" font-size="3em" fill="black">3Y</text>

    <!-- bottom row of pins -->
    <rect width="80" height="75" x="110" y="485"  fill="white" stroke="black" stroke-width="5" />
    <text x="150" y="540" text-anchor="middle" font-family="sans-serif" font-size="3em" fill="black">1</text>
    <text x="150" y="610" text-anchor="middle" font-family="sans-serif" font-size="3em" fill="black">1A</text>
    <rect width="80" height="75" x="210" y="485"  fill="white" stroke="black" stroke-width="5" />
    <text x="250" y="540" text-anchor="middle" font-family="sans-serif" font-size="3em" fill="black">2</text>
    <text x="250" y="610" text-anchor="middle" font-family="sans-serif" font-size="3em" fill="black">1B</text>
    <rect width="80" height="75" x="310" y="485"  fill="white" stroke="black" stroke-width="5" />
    <text x="350" y="540" text-anchor="middle" font-family="sans-serif" font-size="3em" fill="black">3</text>
    <text x="350" y="610" text-anchor="middle" font-family="sans-serif" font-size="3em" fill="black">1Y</text>
    <rect width="80" height="75" x="410" y="485"  fill="white" stroke="black" stroke-width="5" />
    <text x="450" y="540" text-anchor="middle" font-family="sans-serif" font-size="3em" fill="black">4</text>
    <text x="450" y="610" text-anchor="middle" font-family="sans-serif" font-size="3em" fill="black">2A</text>
    <rect width="80" height="75" x="510" y="485"  fill="white" stroke="black" stroke-width="5" />
    <text x="550" y="540" text-anchor="middle" font-family="sans-serif" font-size="3em" fill="black">5</text>
    <text x="550" y="610" text-anchor="middle" font-family="sans-serif" font-size="3em" fill="black">2B</text>
    <rect width="80" height="75" x="610" y="485"  fill="white" stroke="black" stroke-width="5" />
    <text x="650" y="540" text-anchor="middle" font-family="sans-serif" font-size="3em" fill="black">6</text>
    <text x="650" y="610" text-anchor="middle" font-family="sans-serif" font-size="3em" fill="black">2Y</text>
    <rect width="80" height="75" x="710" y="485"  fill="white" stroke="black" stroke-width="5" />
    <text x="750" y="540" text-anchor="middle" font-family="sans-serif" font-size="3em" fill="black">7</text>
    <text x="750" y="610" text-anchor="middle" font-family="sans-serif" font-size="3em" fill="black">GND</text>

    <!-- the gates -->
    <polyline points="150, 485 150, 360 265, 360" stroke="black" stroke-width="3" fill="white" />
    <polyline points="250, 485 250, 390 265, 390" stroke="black" stroke-width="3" fill="white" />
    <polyline points="325, 375 350, 375 350, 485" stroke="black" stroke-width="3" fill="white" />
    <path d="M 265 350 L 290 350 C 340 350, 340 400, 290 400 L 265 400 L 265 350" fill="white" stroke="black" stroke-width="5" />

    <polyline points="450, 485 450, 360 565, 360" stroke="black" stroke-width="3" fill="white" />
    <polyline points="550, 485 550, 390 565, 390" stroke="black" stroke-width="3" fill="white" />
    <polyline points="625, 375 650, 375 650, 485" stroke="black" stroke-width="3" fill="white" />
    <path d="M 565 350 L 590 350 C 640 350, 640 400, 590 400 L 565 400 L 565 350" fill="white" stroke="black" stroke-width="5" />

    <polyline points="550, 65 550, 190 665, 190" stroke="black" stroke-width="3" fill="white" />
    <polyline points="650, 65 650, 160 665, 160" stroke="black" stroke-width="3" fill="white" />
    <polyline points="725, 175 750, 175 750, 65" stroke="black" stroke-width="3" fill="white" />
    <path d="M 665 150 L 690 150 C 740 150, 740 200, 690 200 L 665 200 L 665 150" fill="white" stroke="black" stroke-width="5" />

    <polyline points="250, 65 250, 190 365, 190" stroke="black" stroke-width="3" fill="white" />
    <polyline points="350, 65 350, 160 365, 160" stroke="black" stroke-width="3" fill="white" />
    <polyline points="425, 175 450, 175 450, 65" stroke="black" stroke-width="3" fill="white" />
    <path d="M 365 150 L 390 150 C 440 150, 440 200, 390 200 L 365 200 L 365 150" fill="white" stroke="black" stroke-width="5" />
  </g>
</svg>
